<?xml version="1.0" encoding="UTF-8"?>
<svg xmlns="http://www.w3.org/2000/svg" width="256" height="256" viewBox="0 0 256 256">
  <!-- Background rounded rect -->
  <rect width="256" height="256" rx="36" fill="#1565C0"/>

  <!-- Left panel (local) -->
  <rect x="18" y="52" width="96" height="120" rx="8" fill="#1976D2"/>
  <rect x="18" y="52" width="96" height="18" rx="8" fill="#0D47A1"/>
  <rect x="18" y="61" width="96" height="9" fill="#0D47A1"/>
  <!-- Left panel file rows -->
  <rect x="28" y="84"  width="60" height="7" rx="3" fill="#90CAF9"/>
  <rect x="28" y="98"  width="44" height="7" rx="3" fill="#90CAF9"/>
  <rect x="28" y="112" width="54" height="7" rx="3" fill="#64B5F6"/>
  <rect x="28" y="126" width="38" height="7" rx="3" fill="#90CAF9"/>
  <rect x="28" y="140" width="50" height="7" rx="3" fill="#90CAF9"/>

  <!-- Right panel (remote) -->
  <rect x="142" y="52" width="96" height="120" rx="8" fill="#1976D2"/>
  <rect x="142" y="52" width="96" height="18" rx="8" fill="#0D47A1"/>
  <rect x="142" y="61" width="96" height="9" fill="#0D47A1"/>
  <!-- Right panel file rows -->
  <rect x="152" y="84"  width="60" height="7" rx="3" fill="#90CAF9"/>
  <rect x="152" y="98"  width="44" height="7" rx="3" fill="#90CAF9"/>
  <rect x="152" y="112" width="54" height="7" rx="3" fill="#64B5F6"/>
  <rect x="152" y="126" width="38" height="7" rx="3" fill="#90CAF9"/>
  <rect x="152" y="140" width="50" height="7" rx="3" fill="#90CAF9"/>

  <!-- Transfer arrow right (→) -->
  <polygon points="116,108 132,100 132,106 140,106 140,110 132,110 132,116" fill="#4CAF50"/>
  <!-- Transfer arrow left (←) -->
  <polygon points="140,124 124,132 124,126 116,126 116,122 124,122 124,118" fill="#FF7043"/>

  <!-- "SSH" lock icon -->
  <rect x="110" y="152" width="36" height="24" rx="4" fill="#FDD835"/>
  <path d="M118 152 v-8 a10 10 0 0 1 20 0 v8" fill="none" stroke="#FDD835" stroke-width="4" stroke-linecap="round"/>
  <circle cx="128" cy="163" r="4" fill="#F57F17"/>

  <!-- Bottom label -->
  <text x="128" y="212"
        text-anchor="middle"
        font-family="'DejaVu Sans', 'Liberation Sans', sans-serif"
        font-size="26"
        font-weight="bold"
        fill="#E3F2FD"
        letter-spacing="1">LinSCP</text>
</svg>
